<mxfile host="app.diagrams.net" modified="2023-12-19T09:34:58.095Z" agent="Mozilla/5.0 (Macintosh; Intel Mac OS X 10_15_7) AppleWebKit/537.36 (KHTML, like Gecko) Chrome/120.0.0.0 Safari/537.36" etag="Oi6sVleOSFnUKrptuFQf" version="21.6.6" type="github">
  <diagram id="X5IN_gq6oQN8mepFH-z5" name="Page-1">
    <mxGraphModel dx="3687" dy="1695" grid="1" gridSize="10" guides="1" tooltips="1" connect="1" arrows="1" fold="1" page="0" pageScale="1" pageWidth="827" pageHeight="1169" background="none" math="0" shadow="0">
      <root>
        <mxCell id="0" />
        <mxCell id="1" parent="0" />
        <mxCell id="node7" value="&lt;p style=&quot;margin:0px;margin-top:4px;text-align:center;&quot;&gt;&lt;b&gt;account_permission&lt;/b&gt;&lt;/p&gt;&lt;hr size=&quot;1&quot;/&gt;&lt;p style=&quot;margin:0 0 0 4px;line-height:1.6;&quot;&gt; account_id  /* &amp;#39;账号id&amp;#39; */: varchar(48)&lt;br/&gt; permission_codes  /* &amp;#39;权限id列表&amp;#39; */: text&lt;br/&gt; permission_tree  /* &amp;#39;管理后台权限树详情&amp;#39; */: text&lt;br/&gt; ide_permission_tree  /* &amp;#39;IDE权限树详情&amp;#39; */: text&lt;br/&gt; organ_id  /* &amp;#39;企业id&amp;#39; */: varchar(48)&lt;br/&gt; create_by  /* &amp;#39;创建人&amp;#39; */: varchar(48)&lt;br/&gt; update_by  /* &amp;#39;更新人&amp;#39; */: varchar(48)&lt;br/&gt; create_time  /* &amp;#39;创建时间&amp;#39; */: bigint&lt;br/&gt; update_time  /* &amp;#39;更新时间&amp;#39; */: bigint&lt;/p&gt;&lt;hr size=&quot;1&quot;/&gt;&lt;p style=&quot;margin:0 0 0 4px;line-height:1.6;&quot;&gt; idd  /* &amp;#39;自增id&amp;#39; */: bigint&lt;/p&gt;" style="verticalAlign=top;align=left;overflow=fill;fontSize=14;fontFamily=Helvetica;html=1;rounded=0;shadow=0;comic=0;labelBackgroundColor=none;strokeWidth=1;" parent="1" vertex="1">
          <mxGeometry x="-900" y="-210" width="303" height="252" as="geometry" />
        </mxCell>
        <mxCell id="node3" value="&lt;p style=&quot;margin:0px;margin-top:4px;text-align:center;&quot;&gt;&lt;b&gt;dev_account&lt;/b&gt;&lt;/p&gt;&lt;hr size=&quot;1&quot;/&gt;&lt;p style=&quot;margin:0 0 0 4px;line-height:1.6;&quot;&gt; dev_account_id  /* &amp;#39;账号id&amp;#39; */: varchar(48)&lt;br/&gt; casdoor_user_id  /* &amp;#39;casdoor侧userId&amp;#39; */: varchar(48)&lt;br/&gt; ldap_user_dn  /* &amp;#39;ldap用户dn&amp;#39; */: varchar(1000)&lt;br/&gt; status  /* &amp;#39;账号状态 1:启用,2:停用&amp;#39; */: tinyint(1)&lt;br/&gt; name  /* &amp;#39;姓名&amp;#39; */: varchar(40)&lt;br/&gt; email  /* &amp;#39;邮箱&amp;#39; */: varchar(256)&lt;br/&gt; email_verified  /* &amp;#39;邮箱是否验证&amp;#39; */: tinyint(1)&lt;br/&gt; account  /* &amp;#39;账户名&amp;#39; */: varchar(64)&lt;br/&gt; password  /* &amp;#39;密码&amp;#39; */: varchar(256)&lt;br/&gt; phone  /* &amp;#39;手机&amp;#39; */: varchar(64)&lt;br/&gt; area_code  /* &amp;#39;区号&amp;#39; */: varchar(64)&lt;br/&gt; update_password_time  /* &amp;#39;密码更新时间&amp;#39; */: bigint&lt;br/&gt; from  /* &amp;#39;注册来源 1=web,2=ide,3=app&amp;#39; */: tinyint(1)&lt;br/&gt; create_by  /* &amp;#39;创建人&amp;#39; */: varchar(48)&lt;br/&gt; update_by  /* &amp;#39;更新人&amp;#39; */: varchar(48)&lt;br/&gt; create_time  /* &amp;#39;创建时间&amp;#39; */: bigint&lt;br/&gt; update_time  /* &amp;#39;更新时间&amp;#39; */: bigint&lt;/p&gt;&lt;hr size=&quot;1&quot;/&gt;&lt;p style=&quot;margin:0 0 0 4px;line-height:1.6;&quot;&gt; idd  /* &amp;#39;自增id&amp;#39; */: bigint&lt;/p&gt;" style="verticalAlign=top;align=left;overflow=fill;fontSize=14;fontFamily=Helvetica;html=1;rounded=0;shadow=0;comic=0;labelBackgroundColor=none;strokeWidth=1;" parent="1" vertex="1">
          <mxGeometry x="-430" y="-214" width="340" height="428" as="geometry" />
        </mxCell>
        <mxCell id="node5" value="&lt;p style=&quot;margin:0px;margin-top:4px;text-align:center;&quot;&gt;&lt;b&gt;dev_account_msg_manage&lt;/b&gt;&lt;/p&gt;&lt;hr size=&quot;1&quot;/&gt;&lt;p style=&quot;margin:0 0 0 4px;line-height:1.6;&quot;&gt; dev_account_id  /* &amp;#39;账号id&amp;#39; */: varchar(48)&lt;br/&gt; hide_app_guide  /* &amp;#39;是否隐藏小程序操作指引&amp;#39; */: bigint&lt;br/&gt; ext_info  /* &amp;#39;注册者个人扩展信息&amp;#39; */: varchar(1024)&lt;br/&gt; msg_manage  /* &amp;#39;消息通知管理&amp;#39; */: varchar(1024)&lt;br/&gt; msg_process  /* &amp;#39;前端消息记录&amp;#39; */: tinyint(1)&lt;br/&gt; notify_process  /* &amp;#39;通知中心消息记录&amp;#39; */: tinyint(1)&lt;br/&gt; freeze_msg  /* &amp;#39;冻结消息&amp;#39; */: tinyint(1)&lt;br/&gt; delay_msg  /* &amp;#39;延期消息&amp;#39; */: tinyint(1)&lt;br/&gt; trial_reminder  /* &amp;#39;试用消息&amp;#39; */: tinyint(1)&lt;br/&gt; delay_time  /* &amp;#39;延期时间&amp;#39; */: bigint&lt;br/&gt; create_by  /* &amp;#39;创建人&amp;#39; */: varchar(48)&lt;br/&gt; update_by  /* &amp;#39;更新人&amp;#39; */: varchar(48)&lt;br/&gt; create_time  /* &amp;#39;创建时间&amp;#39; */: bigint&lt;br/&gt; update_time  /* &amp;#39;更新时间&amp;#39; */: bigint&lt;/p&gt;&lt;hr size=&quot;1&quot;/&gt;&lt;p style=&quot;margin:0 0 0 4px;line-height:1.6;&quot;&gt; idd  /* &amp;#39;自增id&amp;#39; */: bigint&lt;/p&gt;" style="verticalAlign=top;align=left;overflow=fill;fontSize=14;fontFamily=Helvetica;html=1;rounded=0;shadow=0;comic=0;labelBackgroundColor=none;strokeWidth=1;" parent="1" vertex="1">
          <mxGeometry x="-1330" y="-330" width="332" height="362" as="geometry" />
        </mxCell>
        <mxCell id="node14" value="&lt;p style=&quot;margin:0px;margin-top:4px;text-align:center;&quot;&gt;&lt;b&gt;dev_organ&lt;/b&gt;&lt;/p&gt;&lt;hr size=&quot;1&quot;/&gt;&lt;p style=&quot;margin:0 0 0 4px;line-height:1.6;&quot;&gt; dev_organ_id  /* &amp;#39;组织id&amp;#39; */: varchar(48)&lt;br/&gt; type  /* &amp;#39;组织类型&amp;#39; */: tinyint(1)&lt;br/&gt; name  /* &amp;#39;组织名称&amp;#39; */: varchar(48)&lt;br/&gt; enterprise_type  /* &amp;#39;企业类型&amp;#39; */: varchar(48)&lt;br/&gt; enterprise_info  /* &amp;#39;企业信息&amp;#39; */: text&lt;br/&gt; review_status  /* &amp;#39;审核状态&amp;#39; */: tinyint(1)&lt;br/&gt; create_by  /* &amp;#39;创建人&amp;#39; */: varchar(48)&lt;br/&gt; update_by  /* &amp;#39;更新人&amp;#39; */: varchar(48)&lt;br/&gt; create_time  /* &amp;#39;创建时间&amp;#39; */: bigint&lt;br/&gt; update_time  /* &amp;#39;更新时间&amp;#39; */: bigint&lt;br/&gt; apply_pass_time  /* &amp;#39;申请通过时间&amp;#39; */: bigint&lt;/p&gt;&lt;hr size=&quot;1&quot;/&gt;&lt;p style=&quot;margin:0 0 0 4px;line-height:1.6;&quot;&gt; idd  /* &amp;#39;自增id&amp;#39; */: bigint&lt;/p&gt;" style="verticalAlign=top;align=left;overflow=fill;fontSize=14;fontFamily=Helvetica;html=1;rounded=0;shadow=0;comic=0;labelBackgroundColor=none;strokeWidth=1;" parent="1" vertex="1">
          <mxGeometry x="420" y="-214" width="293" height="296" as="geometry" />
        </mxCell>
        <mxCell id="node6" value="&lt;p style=&quot;margin:0px;margin-top:4px;text-align:center;&quot;&gt;&lt;b&gt;dev_organ_audit_record&lt;/b&gt;&lt;/p&gt;&lt;hr size=&quot;1&quot;/&gt;&lt;p style=&quot;margin:0 0 0 4px;line-height:1.6;&quot;&gt; dev_organ_audit_record_id  /* &amp;#39;组织审核记录id&amp;#39; */: varchar(48)&lt;br/&gt; enterprise_type  /* &amp;#39;企业类型&amp;#39; */: varchar(48)&lt;br/&gt; enterprise_name  /* &amp;#39;企业名称&amp;#39; */: varchar(128)&lt;br/&gt; enterprise_info  /* &amp;#39;企业信息&amp;#39; */: text&lt;br/&gt; apply_time  /* &amp;#39;申请时间&amp;#39; */: bigint&lt;br/&gt; reviewer_id  /* &amp;#39;审核者&amp;#39; */: varchar(64)&lt;br/&gt; result  /* &amp;#39;审核结果&amp;#39; */: tinyint(1)&lt;br/&gt; reject_reason  /* &amp;#39;驳回原因&amp;#39; */: varchar(512)&lt;br/&gt; workflow_instance_id  /* &amp;#39;流程实例id */: varchar(48)&lt;br/&gt; organ_id  /* &amp;#39;企业id&amp;#39; */: varchar(48)&lt;br/&gt; create_by  /* &amp;#39;创建人&amp;#39; */: varchar(48)&lt;br/&gt; update_by  /* &amp;#39;更新人&amp;#39; */: varchar(48)&lt;br/&gt; create_time  /* &amp;#39;创建时间&amp;#39; */: bigint&lt;br/&gt; update_time  /* &amp;#39;更新时间&amp;#39; */: bigint&lt;/p&gt;&lt;hr size=&quot;1&quot;/&gt;&lt;p style=&quot;margin:0 0 0 4px;line-height:1.6;&quot;&gt; idd  /* &amp;#39;自增id&amp;#39; */: bigint&lt;/p&gt;" style="verticalAlign=top;align=left;overflow=fill;fontSize=14;fontFamily=Helvetica;html=1;rounded=0;shadow=0;comic=0;labelBackgroundColor=none;strokeWidth=1;" parent="1" vertex="1">
          <mxGeometry x="820" y="-122" width="400" height="362" as="geometry" />
        </mxCell>
        <mxCell id="node13" value="&lt;p style=&quot;margin:0px;margin-top:4px;text-align:center;&quot;&gt;&lt;b&gt;dev_organ_form_field_hash&lt;/b&gt;&lt;/p&gt;&lt;hr size=&quot;1&quot;/&gt;&lt;p style=&quot;margin:0 0 0 4px;line-height:1.6;&quot;&gt; field_hash  /* &amp;#39;字段hash&amp;#39; */: varchar(64)&lt;br/&gt; organ_id  /* &amp;#39;组织id&amp;#39; */: varchar(64)&lt;br/&gt; create_by  /* &amp;#39;创建人&amp;#39; */: varchar(48)&lt;br/&gt; update_by  /* &amp;#39;更新人&amp;#39; */: varchar(48)&lt;br/&gt; create_time  /* &amp;#39;创建时间&amp;#39; */: bigint&lt;br/&gt; update_time  /* &amp;#39;更新时间&amp;#39; */: bigint&lt;/p&gt;&lt;hr size=&quot;1&quot;/&gt;&lt;p style=&quot;margin:0 0 0 4px;line-height:1.6;&quot;&gt; idd  /* &amp;#39;自增id&amp;#39; */: bigint&lt;/p&gt;" style="verticalAlign=top;align=left;overflow=fill;fontSize=14;fontFamily=Helvetica;html=1;rounded=0;shadow=0;comic=0;labelBackgroundColor=none;strokeWidth=1;" parent="1" vertex="1">
          <mxGeometry x="820" y="-360" width="260" height="186" as="geometry" />
        </mxCell>
        <mxCell id="node0" value="&lt;p style=&quot;margin:0px;margin-top:4px;text-align:center;&quot;&gt;&lt;b&gt;dev_organ_limit&lt;/b&gt;&lt;/p&gt;&lt;hr size=&quot;1&quot;/&gt;&lt;p style=&quot;margin:0 0 0 4px;line-height:1.6;&quot;&gt; mini_app_limit  /* &amp;#39;小程序限制数量&amp;#39; */: bigint&lt;br/&gt; host_app_limit  /* &amp;#39;宿主应用限制数量&amp;#39; */: bigint&lt;br/&gt; member_limit  /* &amp;#39;组织成员限制数量&amp;#39; */: bigint&lt;br/&gt; host_app_create_status  /* &amp;#39;是否可以创建应用&amp;#39; */: tinyint(1)&lt;br/&gt; organ_id  /* &amp;#39;企业id&amp;#39; */: varchar(48)&lt;br/&gt; create_by  /* &amp;#39;创建人&amp;#39; */: varchar(48)&lt;br/&gt; update_by  /* &amp;#39;更新人&amp;#39; */: varchar(48)&lt;br/&gt; create_time  /* &amp;#39;创建时间&amp;#39; */: bigint&lt;br/&gt; update_time  /* &amp;#39;更新时间&amp;#39; */: bigint&lt;/p&gt;&lt;hr size=&quot;1&quot;/&gt;&lt;p style=&quot;margin:0 0 0 4px;line-height:1.6;&quot;&gt; idd  /* &amp;#39;自增id&amp;#39; */: bigint&lt;/p&gt;" style="verticalAlign=top;align=left;overflow=fill;fontSize=14;fontFamily=Helvetica;html=1;rounded=0;shadow=0;comic=0;labelBackgroundColor=none;strokeWidth=1;" parent="1" vertex="1">
          <mxGeometry x="820" y="296" width="373" height="252" as="geometry" />
        </mxCell>
        <mxCell id="node4" value="&lt;p style=&quot;margin:0px;margin-top:4px;text-align:center;&quot;&gt;&lt;b&gt;member&lt;/b&gt;&lt;/p&gt;&lt;hr size=&quot;1&quot;/&gt;&lt;p style=&quot;margin:0 0 0 4px;line-height:1.6;&quot;&gt; member_id  /* &amp;#39;组织成员id&amp;#39; */: varchar(40)&lt;br/&gt; account_id  /* &amp;#39;账户id&amp;#39; */: varchar(40)&lt;br/&gt; organ_id  /* &amp;#39;企业id&amp;#39; */: varchar(48)&lt;br/&gt; is_admin  /* &amp;#39;是否是管理员 0:否 1:是&amp;#39; */: tinyint(1)&lt;br/&gt; last_login_time  /* &amp;#39;最后登录时间&amp;#39; */: bigint&lt;br/&gt; platform  /* &amp;#39;平台 0:未知 1:开发端 2:运营端&amp;#39; */: tinyint(1)&lt;br/&gt; create_by  /* &amp;#39;创建人&amp;#39; */: varchar(48)&lt;br/&gt; update_by  /* &amp;#39;更新人&amp;#39; */: varchar(48)&lt;br/&gt; create_time  /* &amp;#39;创建时间&amp;#39; */: bigint&lt;br/&gt; update_time  /* &amp;#39;更新时间&amp;#39; */: bigint&lt;/p&gt;&lt;hr size=&quot;1&quot;/&gt;&lt;p style=&quot;margin:0 0 0 4px;line-height:1.6;&quot;&gt; idd  /* &amp;#39;自增id&amp;#39; */: bigint&lt;/p&gt;" style="verticalAlign=top;align=left;overflow=fill;fontSize=14;fontFamily=Helvetica;html=1;rounded=0;shadow=0;comic=0;labelBackgroundColor=none;strokeWidth=1;" parent="1" vertex="1">
          <mxGeometry x="10" y="240" width="331" height="274" as="geometry" />
        </mxCell>
        <mxCell id="node2" value="&lt;p style=&quot;margin:0px;margin-top:4px;text-align:center;&quot;&gt;&lt;b&gt;oper_account&lt;/b&gt;&lt;/p&gt;&lt;hr size=&quot;1&quot;/&gt;&lt;p style=&quot;margin:0 0 0 4px;line-height:1.6;&quot;&gt; oper_account_id  /* &amp;#39;唯一键&amp;#39; */: varchar(40)&lt;br/&gt; casdoor_user_id  /* &amp;#39;casdoor用户id&amp;#39; */: varchar(40)&lt;br/&gt; name  /* &amp;#39;姓名&amp;#39; */: varchar(40)&lt;br/&gt; account  /* &amp;#39;账户名&amp;#39; */: varchar(64)&lt;br/&gt; phone  /* &amp;#39;手机&amp;#39; */: varchar(64)&lt;br/&gt; email  /* &amp;#39;邮箱&amp;#39; */: varchar(256)&lt;br/&gt; status  /* &amp;#39;状态&amp;#39; */: tinyint(1)&lt;br/&gt; password  /* &amp;#39;密码&amp;#39; */: varchar(64)&lt;br/&gt; update_password_time  /* &amp;#39;密码更新时间&amp;#39; */: bigint&lt;br/&gt; is_admin  /* &amp;#39;是否是管理员 0:否 1:是&amp;#39; */: tinyint(1)&lt;br/&gt; area_code  /* &amp;#39;区号&amp;#39; */: varchar(64)&lt;br/&gt; create_by  /* &amp;#39;创建人&amp;#39; */: varchar(48)&lt;br/&gt; update_by  /* &amp;#39;更新人&amp;#39; */: varchar(48)&lt;br/&gt; create_time  /* &amp;#39;创建时间&amp;#39; */: bigint&lt;br/&gt; update_time  /* &amp;#39;更新时间&amp;#39; */: bigint&lt;/p&gt;&lt;hr size=&quot;1&quot;/&gt;&lt;p style=&quot;margin:0 0 0 4px;line-height:1.6;&quot;&gt; idd  /* &amp;#39;自增id&amp;#39; */: bigint&lt;/p&gt;" style="verticalAlign=top;align=left;overflow=fill;fontSize=14;fontFamily=Helvetica;html=1;rounded=0;shadow=0;comic=0;labelBackgroundColor=none;strokeWidth=1;" parent="1" vertex="1">
          <mxGeometry x="-500" y="560" width="328" height="384" as="geometry" />
        </mxCell>
        <mxCell id="node10" value="&lt;p style=&quot;margin:0px;margin-top:4px;text-align:center;&quot;&gt;&lt;b&gt;oper_organ&lt;/b&gt;&lt;/p&gt;&lt;hr size=&quot;1&quot;/&gt;&lt;p style=&quot;margin:0 0 0 4px;line-height:1.6;&quot;&gt; oper_organ_id  /* &amp;#39;组织id&amp;#39; */: varchar(40)&lt;br/&gt; name  /* &amp;#39;组织名称&amp;#39; */: varchar(40)&lt;br/&gt; create_by  /* &amp;#39;创建人&amp;#39; */: varchar(48)&lt;br/&gt; update_by  /* &amp;#39;更新人&amp;#39; */: varchar(48)&lt;br/&gt; create_time  /* &amp;#39;创建时间&amp;#39; */: bigint&lt;br/&gt; update_time  /* &amp;#39;更新时间&amp;#39; */: bigint&lt;/p&gt;&lt;hr size=&quot;1&quot;/&gt;&lt;p style=&quot;margin:0 0 0 4px;line-height:1.6;&quot;&gt; idd  /* &amp;#39;自增id&amp;#39; */: bigint&lt;/p&gt;" style="verticalAlign=top;align=left;overflow=fill;fontSize=14;fontFamily=Helvetica;html=1;rounded=0;shadow=0;comic=0;labelBackgroundColor=none;strokeWidth=1;" parent="1" vertex="1">
          <mxGeometry x="420" y="610" width="271" height="186" as="geometry" />
        </mxCell>
        <mxCell id="node8" value="&lt;p style=&quot;margin:0px;margin-top:4px;text-align:center;&quot;&gt;&lt;b&gt;resource_group&lt;/b&gt;&lt;/p&gt;&lt;hr size=&quot;1&quot;/&gt;&lt;p style=&quot;margin:0 0 0 4px;line-height:1.6;&quot;&gt; resource_group_id  /* &amp;#39;资源组id&amp;#39; */: varchar(40)&lt;br/&gt; name  /* &amp;#39;资源组名称&amp;#39; */: varchar(40)&lt;br/&gt; is_built_in  /* &amp;#39;是否内置资源组&amp;#39; */: tinyint(1)&lt;br/&gt; organ_id  /* &amp;#39;企业id&amp;#39; */: varchar(48)&lt;br/&gt; create_by  /* &amp;#39;创建人&amp;#39; */: varchar(48)&lt;br/&gt; update_by  /* &amp;#39;更新人&amp;#39; */: varchar(48)&lt;br/&gt; create_time  /* &amp;#39;创建时间&amp;#39; */: bigint&lt;br/&gt; update_time  /* &amp;#39;更新时间&amp;#39; */: bigint&lt;/p&gt;&lt;hr size=&quot;1&quot;/&gt;&lt;p style=&quot;margin:0 0 0 4px;line-height:1.6;&quot;&gt; idd  /* &amp;#39;自增id&amp;#39; */: bigint&lt;/p&gt;" style="verticalAlign=top;align=left;overflow=fill;fontSize=14;fontFamily=Helvetica;html=1;rounded=0;shadow=0;comic=0;labelBackgroundColor=none;strokeWidth=1;" parent="1" vertex="1">
          <mxGeometry x="-1670" y="450" width="310" height="230" as="geometry" />
        </mxCell>
        <mxCell id="node12" value="&lt;p style=&quot;margin:0px;margin-top:4px;text-align:center;&quot;&gt;&lt;b&gt;resource_group_account&lt;/b&gt;&lt;/p&gt;&lt;hr size=&quot;1&quot;/&gt;&lt;p style=&quot;margin:0 0 0 4px;line-height:1.6;&quot;&gt; resource_group_id  /* &amp;#39;资源组id&amp;#39; */: varchar(40)&lt;br/&gt; dev_account_id  /* &amp;#39;开发端account_id&amp;#39; */: varchar(40)&lt;br/&gt; organ_id  /* &amp;#39;企业id&amp;#39; */: varchar(48)&lt;br/&gt; create_by  /* &amp;#39;创建人&amp;#39; */: varchar(48)&lt;br/&gt; update_by  /* &amp;#39;更新人&amp;#39; */: varchar(48)&lt;br/&gt; create_time  /* &amp;#39;创建时间&amp;#39; */: bigint&lt;br/&gt; update_time  /* &amp;#39;更新时间&amp;#39; */: bigint&lt;/p&gt;&lt;hr size=&quot;1&quot;/&gt;&lt;p style=&quot;margin:0 0 0 4px;line-height:1.6;&quot;&gt; idd  /* &amp;#39;自增id&amp;#39; */: bigint&lt;/p&gt;" style="verticalAlign=top;align=left;overflow=fill;fontSize=14;fontFamily=Helvetica;html=1;rounded=0;shadow=0;comic=0;labelBackgroundColor=none;strokeWidth=1;" parent="1" vertex="1">
          <mxGeometry x="-1650" y="150" width="339" height="208" as="geometry" />
        </mxCell>
        <mxCell id="node1" value="&lt;p style=&quot;margin:0px;margin-top:4px;text-align:center;&quot;&gt;&lt;b&gt;resource_group_resource&lt;/b&gt;&lt;/p&gt;&lt;hr size=&quot;1&quot;/&gt;&lt;p style=&quot;margin:0 0 0 4px;line-height:1.6;&quot;&gt; resource_group_id  /* &amp;#39;资源组id&amp;#39; */: varchar(40)&lt;br/&gt; resource_type  /* &amp;#39;资源类型 1. mini-app 2. host-app&amp;#39; */: tinyint(1)&lt;br/&gt; resource_id  /* &amp;#39;资源id 根据具体的资源类型定&amp;#39; */: varchar(40)&lt;br/&gt; organ_id  /* &amp;#39;企业id&amp;#39; */: varchar(48)&lt;br/&gt; create_by  /* &amp;#39;创建人&amp;#39; */: varchar(48)&lt;br/&gt; update_by  /* &amp;#39;更新人&amp;#39; */: varchar(48)&lt;br/&gt; create_time  /* &amp;#39;创建时间&amp;#39; */: bigint&lt;br/&gt; update_time  /* &amp;#39;更新时间&amp;#39; */: bigint&lt;/p&gt;&lt;hr size=&quot;1&quot;/&gt;&lt;p style=&quot;margin:0 0 0 4px;line-height:1.6;&quot;&gt; idd  /* &amp;#39;自增id&amp;#39; */: bigint&lt;/p&gt;" style="verticalAlign=top;align=left;overflow=fill;fontSize=14;fontFamily=Helvetica;html=1;rounded=0;shadow=0;comic=0;labelBackgroundColor=none;strokeWidth=1;" parent="1" vertex="1">
          <mxGeometry x="-1190" y="660" width="389" height="230" as="geometry" />
        </mxCell>
        <mxCell id="node15" value="&lt;p style=&quot;margin:0px;margin-top:4px;text-align:center;&quot;&gt;&lt;b&gt;role&lt;/b&gt;&lt;/p&gt;&lt;hr size=&quot;1&quot;/&gt;&lt;p style=&quot;margin:0 0 0 4px;line-height:1.6;&quot;&gt; role_id  /* &amp;#39;业务主键id&amp;#39; */: varchar(40)&lt;br/&gt; type  /* &amp;#39;角色类型&amp;#39; */: tinyint(1)&lt;br/&gt; role_name  /* &amp;#39;角色名称&amp;#39; */: varchar(48)&lt;br/&gt; permission_tree  /* &amp;#39;管理后台权限树详情&amp;#39; */: text&lt;br/&gt; ide_permission_tree  /* &amp;#39;ide权限树详情&amp;#39; */: text&lt;br/&gt; is_built_in  /* &amp;#39;是否内置角色&amp;#39; */: tinyint(1)&lt;br/&gt; organ_id  /* &amp;#39;企业id&amp;#39; */: varchar(48)&lt;br/&gt; create_by  /* &amp;#39;创建人&amp;#39; */: varchar(48)&lt;br/&gt; update_by  /* &amp;#39;更新人&amp;#39; */: varchar(48)&lt;br/&gt; create_time  /* &amp;#39;创建时间&amp;#39; */: bigint&lt;br/&gt; update_time  /* &amp;#39;更新时间&amp;#39; */: bigint&lt;/p&gt;&lt;hr size=&quot;1&quot;/&gt;&lt;p style=&quot;margin:0 0 0 4px;line-height:1.6;&quot;&gt; idd  /* &amp;#39;自增id&amp;#39; */: bigint&lt;/p&gt;" style="verticalAlign=top;align=left;overflow=fill;fontSize=14;fontFamily=Helvetica;html=1;rounded=0;shadow=0;comic=0;labelBackgroundColor=none;strokeWidth=1;" parent="1" vertex="1">
          <mxGeometry x="-1220" y="252" width="302" height="296" as="geometry" />
        </mxCell>
        <mxCell id="node11" value="&lt;p style=&quot;margin:0px;margin-top:4px;text-align:center;&quot;&gt;&lt;b&gt;role_account&lt;/b&gt;&lt;/p&gt;&lt;hr size=&quot;1&quot;/&gt;&lt;p style=&quot;margin:0 0 0 4px;line-height:1.6;&quot;&gt; role_id  /* &amp;#39;角色id&amp;#39; */: varchar(48)&lt;br/&gt; account_id  /* &amp;#39;成员id&amp;#39; */: varchar(48)&lt;br/&gt; organ_id  /* &amp;#39;企业id&amp;#39; */: varchar(48)&lt;br/&gt; create_by  /* &amp;#39;创建人&amp;#39; */: varchar(48)&lt;br/&gt; update_by  /* &amp;#39;更新人&amp;#39; */: varchar(48)&lt;br/&gt; create_time  /* &amp;#39;创建时间&amp;#39; */: bigint&lt;br/&gt; update_time  /* &amp;#39;更新时间&amp;#39; */: bigint&lt;/p&gt;&lt;hr size=&quot;1&quot;/&gt;&lt;p style=&quot;margin:0 0 0 4px;line-height:1.6;&quot;&gt; idd  /* &amp;#39;自增id&amp;#39; */: bigint&lt;/p&gt;" style="verticalAlign=top;align=left;overflow=fill;fontSize=14;fontFamily=Helvetica;html=1;rounded=0;shadow=0;comic=0;labelBackgroundColor=none;strokeWidth=1;" parent="1" vertex="1">
          <mxGeometry x="-830" y="273" width="249" height="208" as="geometry" />
        </mxCell>
        <mxCell id="node9" value="&lt;p style=&quot;margin:0px;margin-top:4px;text-align:center;&quot;&gt;&lt;b&gt;trial_user&lt;/b&gt;&lt;/p&gt;&lt;hr size=&quot;1&quot;/&gt;&lt;p style=&quot;margin:0 0 0 4px;line-height:1.6;&quot;&gt; user_id  /* &amp;#39;用户的唯一标识 phone/email/account 等&amp;#39; */: varchar(256)&lt;br/&gt; organ_id  /* &amp;#39;企业id&amp;#39; */: varchar(48)&lt;br/&gt; create_by  /* &amp;#39;创建人&amp;#39; */: varchar(48)&lt;br/&gt; update_by  /* &amp;#39;更新人&amp;#39; */: varchar(48)&lt;br/&gt; create_time  /* &amp;#39;创建时间&amp;#39; */: bigint&lt;br/&gt; update_time  /* &amp;#39;更新时间&amp;#39; */: bigint&lt;/p&gt;&lt;hr size=&quot;1&quot;/&gt;&lt;p style=&quot;margin:0 0 0 4px;line-height:1.6;&quot;&gt; idd  /* &amp;#39;自增id&amp;#39; */: bigint&lt;/p&gt;" style="verticalAlign=top;align=left;overflow=fill;fontSize=14;fontFamily=Helvetica;html=1;rounded=0;shadow=0;comic=0;labelBackgroundColor=none;strokeWidth=1;" parent="1" vertex="1">
          <mxGeometry x="-420" y="-440" width="405" height="186" as="geometry" />
        </mxCell>
        <mxCell id="DvVW8LaeUs5PbeJUIla2-3" value="" style="endArrow=classic;html=1;rounded=0;edgeStyle=orthogonalEdgeStyle;entryX=0;entryY=0.25;entryDx=0;entryDy=0;" edge="1" parent="1" target="node4">
          <mxGeometry width="50" height="50" relative="1" as="geometry">
            <mxPoint x="-90" y="-180" as="sourcePoint" />
            <mxPoint x="20" y="-170" as="targetPoint" />
            <Array as="points">
              <mxPoint x="-40" y="-166" />
              <mxPoint x="-40" y="309" />
            </Array>
          </mxGeometry>
        </mxCell>
        <mxCell id="DvVW8LaeUs5PbeJUIla2-6" value="1:n" style="edgeLabel;html=1;align=center;verticalAlign=middle;resizable=0;points=[];fontSize=21;" vertex="1" connectable="0" parent="DvVW8LaeUs5PbeJUIla2-3">
          <mxGeometry x="0.08" y="5" relative="1" as="geometry">
            <mxPoint as="offset" />
          </mxGeometry>
        </mxCell>
        <mxCell id="DvVW8LaeUs5PbeJUIla2-4" value="" style="endArrow=classic;html=1;rounded=0;edgeStyle=orthogonalEdgeStyle;exitX=1.004;exitY=0.339;exitDx=0;exitDy=0;exitPerimeter=0;" edge="1" parent="1" source="node4">
          <mxGeometry width="50" height="50" relative="1" as="geometry">
            <mxPoint x="350" y="320" as="sourcePoint" />
            <mxPoint x="420" y="-170" as="targetPoint" />
            <Array as="points">
              <mxPoint x="380" y="333" />
              <mxPoint x="380" y="-170" />
              <mxPoint x="420" y="-170" />
            </Array>
          </mxGeometry>
        </mxCell>
        <mxCell id="DvVW8LaeUs5PbeJUIla2-7" value="1:n" style="edgeLabel;html=1;align=center;verticalAlign=middle;resizable=0;points=[];fontSize=21;" vertex="1" connectable="0" parent="DvVW8LaeUs5PbeJUIla2-4">
          <mxGeometry x="-0.2555" y="2" relative="1" as="geometry">
            <mxPoint as="offset" />
          </mxGeometry>
        </mxCell>
        <mxCell id="DvVW8LaeUs5PbeJUIla2-8" value="" style="endArrow=classic;html=1;rounded=0;edgeStyle=orthogonalEdgeStyle;entryX=0;entryY=0.25;entryDx=0;entryDy=0;" edge="1" parent="1" target="node4">
          <mxGeometry width="50" height="50" relative="1" as="geometry">
            <mxPoint x="-170" y="600" as="sourcePoint" />
            <mxPoint x="-110" y="550" as="targetPoint" />
          </mxGeometry>
        </mxCell>
        <mxCell id="DvVW8LaeUs5PbeJUIla2-9" value="1:n" style="edgeLabel;html=1;align=center;verticalAlign=middle;resizable=0;points=[];fontSize=21;" vertex="1" connectable="0" parent="DvVW8LaeUs5PbeJUIla2-8">
          <mxGeometry x="-0.0364" y="1" relative="1" as="geometry">
            <mxPoint as="offset" />
          </mxGeometry>
        </mxCell>
        <mxCell id="DvVW8LaeUs5PbeJUIla2-10" value="" style="endArrow=classic;html=1;rounded=0;edgeStyle=orthogonalEdgeStyle;entryX=0;entryY=0.108;entryDx=0;entryDy=0;entryPerimeter=0;shadow=0;startFill=1;" edge="1" parent="1" target="node3">
          <mxGeometry width="50" height="50" relative="1" as="geometry">
            <mxPoint x="-580" y="340" as="sourcePoint" />
            <mxPoint x="-470" y="-150" as="targetPoint" />
          </mxGeometry>
        </mxCell>
        <mxCell id="DvVW8LaeUs5PbeJUIla2-12" value="1:n" style="edgeLabel;html=1;align=center;verticalAlign=middle;resizable=0;points=[];fontSize=21;" vertex="1" connectable="0" parent="DvVW8LaeUs5PbeJUIla2-10">
          <mxGeometry x="-0.042" relative="1" as="geometry">
            <mxPoint as="offset" />
          </mxGeometry>
        </mxCell>
        <mxCell id="DvVW8LaeUs5PbeJUIla2-13" value="" style="endArrow=classic;html=1;rounded=0;edgeStyle=orthogonalEdgeStyle;entryX=0;entryY=0.25;entryDx=0;entryDy=0;exitX=1.002;exitY=0.145;exitDx=0;exitDy=0;exitPerimeter=0;" edge="1" parent="1" source="node15" target="node11">
          <mxGeometry width="50" height="50" relative="1" as="geometry">
            <mxPoint x="-930" y="180" as="sourcePoint" />
            <mxPoint x="-880" y="130" as="targetPoint" />
          </mxGeometry>
        </mxCell>
        <mxCell id="DvVW8LaeUs5PbeJUIla2-14" value="1:n" style="edgeLabel;html=1;align=center;verticalAlign=middle;resizable=0;points=[];fontSize=21;" vertex="1" connectable="0" parent="DvVW8LaeUs5PbeJUIla2-13">
          <mxGeometry x="-0.5525" relative="1" as="geometry">
            <mxPoint as="offset" />
          </mxGeometry>
        </mxCell>
        <mxCell id="DvVW8LaeUs5PbeJUIla2-15" value="" style="endArrow=classic;html=1;rounded=0;edgeStyle=orthogonalEdgeStyle;entryX=0.003;entryY=0.133;entryDx=0;entryDy=0;entryPerimeter=0;" edge="1" parent="1" target="node2">
          <mxGeometry width="50" height="50" relative="1" as="geometry">
            <mxPoint x="-580" y="340" as="sourcePoint" />
            <mxPoint x="-520" y="620" as="targetPoint" />
          </mxGeometry>
        </mxCell>
        <mxCell id="DvVW8LaeUs5PbeJUIla2-16" value="1:n" style="edgeLabel;html=1;align=center;verticalAlign=middle;resizable=0;points=[];fontSize=21;" vertex="1" connectable="0" parent="DvVW8LaeUs5PbeJUIla2-15">
          <mxGeometry x="-0.1098" y="2" relative="1" as="geometry">
            <mxPoint as="offset" />
          </mxGeometry>
        </mxCell>
        <mxCell id="DvVW8LaeUs5PbeJUIla2-18" value="" style="endArrow=none;html=1;rounded=0;edgeStyle=orthogonalEdgeStyle;entryX=-0.009;entryY=0.109;entryDx=0;entryDy=0;entryPerimeter=0;exitX=1.009;exitY=0.165;exitDx=0;exitDy=0;exitPerimeter=0;" edge="1" parent="1" source="node7" target="node3">
          <mxGeometry width="50" height="50" relative="1" as="geometry">
            <mxPoint x="-1080" y="20" as="sourcePoint" />
            <mxPoint x="-910" y="-80" as="targetPoint" />
          </mxGeometry>
        </mxCell>
        <mxCell id="DvVW8LaeUs5PbeJUIla2-19" value="1:n" style="edgeLabel;html=1;align=center;verticalAlign=middle;resizable=0;points=[];fontSize=21;" vertex="1" connectable="0" parent="DvVW8LaeUs5PbeJUIla2-18">
          <mxGeometry x="-0.6609" y="-4" relative="1" as="geometry">
            <mxPoint as="offset" />
          </mxGeometry>
        </mxCell>
        <mxCell id="DvVW8LaeUs5PbeJUIla2-20" value="" style="endArrow=none;html=1;rounded=0;edgeStyle=orthogonalEdgeStyle;entryX=0.002;entryY=0.1;entryDx=0;entryDy=0;entryPerimeter=0;exitX=1.003;exitY=0.124;exitDx=0;exitDy=0;exitPerimeter=0;" edge="1" parent="1" source="node5" target="node3">
          <mxGeometry width="50" height="50" relative="1" as="geometry">
            <mxPoint x="-980" y="-290" as="sourcePoint" />
            <mxPoint x="-730" y="-380" as="targetPoint" />
            <Array as="points">
              <mxPoint x="-997" y="-290" />
              <mxPoint x="-500" y="-290" />
              <mxPoint x="-500" y="-171" />
            </Array>
          </mxGeometry>
        </mxCell>
        <mxCell id="DvVW8LaeUs5PbeJUIla2-21" value="1:n" style="edgeLabel;html=1;align=center;verticalAlign=middle;resizable=0;points=[];fontSize=21;" vertex="1" connectable="0" parent="DvVW8LaeUs5PbeJUIla2-20">
          <mxGeometry x="-0.3475" y="2" relative="1" as="geometry">
            <mxPoint as="offset" />
          </mxGeometry>
        </mxCell>
        <mxCell id="DvVW8LaeUs5PbeJUIla2-22" value="" style="endArrow=none;html=1;rounded=0;edgeStyle=orthogonalEdgeStyle;exitX=-0.017;exitY=0.197;exitDx=0;exitDy=0;exitPerimeter=0;" edge="1" parent="1" source="node1">
          <mxGeometry width="50" height="50" relative="1" as="geometry">
            <mxPoint x="-1860" y="30" as="sourcePoint" />
            <mxPoint x="-1360" y="500" as="targetPoint" />
            <Array as="points">
              <mxPoint x="-1197" y="712" />
              <mxPoint x="-1300" y="712" />
              <mxPoint x="-1300" y="500" />
            </Array>
          </mxGeometry>
        </mxCell>
        <mxCell id="DvVW8LaeUs5PbeJUIla2-23" value="1:n" style="edgeLabel;html=1;align=center;verticalAlign=middle;resizable=0;points=[];fontSize=21;" vertex="1" connectable="0" parent="DvVW8LaeUs5PbeJUIla2-22">
          <mxGeometry x="-0.2122" y="2" relative="1" as="geometry">
            <mxPoint as="offset" />
          </mxGeometry>
        </mxCell>
        <mxCell id="DvVW8LaeUs5PbeJUIla2-24" value="" style="endArrow=none;html=1;rounded=0;edgeStyle=orthogonalEdgeStyle;exitX=1.003;exitY=0.231;exitDx=0;exitDy=0;exitPerimeter=0;entryX=1.003;entryY=0.199;entryDx=0;entryDy=0;entryPerimeter=0;" edge="1" parent="1" source="node12" target="node8">
          <mxGeometry width="50" height="50" relative="1" as="geometry">
            <mxPoint x="-1900" y="570" as="sourcePoint" />
            <mxPoint x="-1310" y="200" as="targetPoint" />
          </mxGeometry>
        </mxCell>
        <mxCell id="DvVW8LaeUs5PbeJUIla2-25" value="1:n" style="edgeLabel;html=1;align=center;verticalAlign=middle;resizable=0;points=[];fontSize=21;" vertex="1" connectable="0" parent="DvVW8LaeUs5PbeJUIla2-24">
          <mxGeometry x="0.3489" relative="1" as="geometry">
            <mxPoint y="106" as="offset" />
          </mxGeometry>
        </mxCell>
        <mxCell id="DvVW8LaeUs5PbeJUIla2-26" value="" style="endArrow=none;html=1;rounded=0;edgeStyle=orthogonalEdgeStyle;" edge="1" parent="1">
          <mxGeometry width="50" height="50" relative="1" as="geometry">
            <mxPoint x="-1311" y="220" as="sourcePoint" />
            <mxPoint x="-440" y="-170" as="targetPoint" />
            <Array as="points">
              <mxPoint x="-1311" y="220" />
              <mxPoint x="-440" y="220" />
            </Array>
          </mxGeometry>
        </mxCell>
        <mxCell id="DvVW8LaeUs5PbeJUIla2-27" value="1:n" style="edgeLabel;html=1;align=center;verticalAlign=middle;resizable=0;points=[];fontSize=21;" vertex="1" connectable="0" parent="DvVW8LaeUs5PbeJUIla2-26">
          <mxGeometry x="-0.6186" y="-1" relative="1" as="geometry">
            <mxPoint as="offset" />
          </mxGeometry>
        </mxCell>
        <mxCell id="DvVW8LaeUs5PbeJUIla2-28" value="" style="endArrow=none;html=1;rounded=0;entryX=-0.013;entryY=0.368;entryDx=0;entryDy=0;entryPerimeter=0;exitX=0.996;exitY=0.14;exitDx=0;exitDy=0;exitPerimeter=0;edgeStyle=orthogonalEdgeStyle;" edge="1" parent="1" source="node14" target="node13">
          <mxGeometry width="50" height="50" relative="1" as="geometry">
            <mxPoint x="580" y="-290" as="sourcePoint" />
            <mxPoint x="630" y="-340" as="targetPoint" />
          </mxGeometry>
        </mxCell>
        <mxCell id="DvVW8LaeUs5PbeJUIla2-29" value="1:n" style="edgeLabel;html=1;align=center;verticalAlign=middle;resizable=0;points=[];fontSize=21;" vertex="1" connectable="0" parent="DvVW8LaeUs5PbeJUIla2-28">
          <mxGeometry x="0.0674" y="-2" relative="1" as="geometry">
            <mxPoint y="-1" as="offset" />
          </mxGeometry>
        </mxCell>
        <mxCell id="DvVW8LaeUs5PbeJUIla2-30" value="" style="endArrow=none;html=1;rounded=0;entryX=-0.006;entryY=0.692;entryDx=0;entryDy=0;entryPerimeter=0;edgeStyle=orthogonalEdgeStyle;" edge="1" parent="1" target="node6">
          <mxGeometry width="50" height="50" relative="1" as="geometry">
            <mxPoint x="710" y="-170" as="sourcePoint" />
            <mxPoint x="680" y="140" as="targetPoint" />
            <Array as="points">
              <mxPoint x="790" y="-169" />
              <mxPoint x="790" y="129" />
            </Array>
          </mxGeometry>
        </mxCell>
        <mxCell id="DvVW8LaeUs5PbeJUIla2-31" value="1:1" style="edgeLabel;html=1;align=center;verticalAlign=middle;resizable=0;points=[];fontSize=21;" vertex="1" connectable="0" parent="DvVW8LaeUs5PbeJUIla2-30">
          <mxGeometry x="0.0103" y="2" relative="1" as="geometry">
            <mxPoint as="offset" />
          </mxGeometry>
        </mxCell>
        <mxCell id="DvVW8LaeUs5PbeJUIla2-33" value="" style="endArrow=none;html=1;rounded=0;entryX=-0.009;entryY=0.54;entryDx=0;entryDy=0;entryPerimeter=0;edgeStyle=orthogonalEdgeStyle;" edge="1" parent="1" target="node0">
          <mxGeometry width="50" height="50" relative="1" as="geometry">
            <mxPoint x="710" y="-170" as="sourcePoint" />
            <mxPoint x="640" y="300" as="targetPoint" />
            <Array as="points">
              <mxPoint x="760" y="-169" />
              <mxPoint x="760" y="432" />
            </Array>
          </mxGeometry>
        </mxCell>
        <mxCell id="DvVW8LaeUs5PbeJUIla2-34" value="1:1" style="edgeLabel;html=1;align=center;verticalAlign=middle;resizable=0;points=[];fontSize=21;" vertex="1" connectable="0" parent="DvVW8LaeUs5PbeJUIla2-33">
          <mxGeometry x="0.1486" y="-4" relative="1" as="geometry">
            <mxPoint y="1" as="offset" />
          </mxGeometry>
        </mxCell>
        <mxCell id="DvVW8LaeUs5PbeJUIla2-35" value="" style="endArrow=none;html=1;rounded=0;exitX=0.997;exitY=0.353;exitDx=0;exitDy=0;exitPerimeter=0;entryX=0;entryY=0.25;entryDx=0;entryDy=0;edgeStyle=orthogonalEdgeStyle;" edge="1" parent="1" source="node4" target="node10">
          <mxGeometry width="50" height="50" relative="1" as="geometry">
            <mxPoint x="560" y="490" as="sourcePoint" />
            <mxPoint x="610" y="440" as="targetPoint" />
          </mxGeometry>
        </mxCell>
        <mxCell id="DvVW8LaeUs5PbeJUIla2-36" value="1:n" style="edgeLabel;html=1;align=center;verticalAlign=middle;resizable=0;points=[];fontSize=21;" vertex="1" connectable="0" parent="DvVW8LaeUs5PbeJUIla2-35">
          <mxGeometry x="-0.226" y="2" relative="1" as="geometry">
            <mxPoint y="-1" as="offset" />
          </mxGeometry>
        </mxCell>
      </root>
    </mxGraphModel>
  </diagram>
</mxfile>
